# xmcd
#
# Track frame offsets: 
#        150
#        19304
#        39865
#        59264
#        82974
#        100798
#        119753
#        138123
#        154845
#        175016
#        194168
#        210740
#        233144
#        253037
#
# Disc length: 3649 seconds
#
# Revision: 0
# Processed by: cddbd v1.5.1PL2 Copyright (c) Steve Scherf et al.
# Submitted via: ExactAudioCopy v0.95a5
#
DISCID=bc0e3f0e
DTITLE=Sheryl Crow - wildflower
DYEAR=2005
DGENRE=Country
TTITLE0=I know why
TTITLE1=perfect lie
TTITLE2=good is good
TTITLE3=chances are
TTITLE4=wildflower
TTITLE5=lifetimes
TTITLE6=letter to god
TTITLE7=live it up
TTITLE8=I don't wanna know
TTITLE9=always on your side
TTITLE10=where has all the love gone
TTITLE11=picture
TTITLE12=c'mon c'mon
TTITLE13=love me like that
EXTD=
EXTT0=
EXTT1=
EXTT2=
EXTT3=
EXTT4=
EXTT5=
EXTT6=
EXTT7=
EXTT8=
EXTT9=
EXTT10=
EXTT11=
EXTT12=
EXTT13=
PLAYORDER=
